<svg xmlns="http://www.w3.org/2000/svg" width="360" height="300" viewBox="0 0 360 300">
  <rect width="360" height="300" rx="12" fill="#f4f1ea" stroke="#9a8f7a" stroke-width="1" opacity="0.97"/>
  
  <line x1="22" y1="30" x2="58" y2="30" stroke="#9a8f7a" stroke-width="2"/>
  <text x="22" y="56" font-family="Georgia, 'Times New Roman', serif" font-size="19" font-style="italic" fill="#2c2a27">Top Languages</text>
  
    <text x="22" y="101" font-family="Georgia, 'Times New Roman', serif" font-size="14" fill="#5c574f">TypeScript</text>
    <rect x="106" y="88" width="220" height="14" rx="7" fill="#e3ded2"/>
    <rect x="106" y="88" width="101.9" height="14" rx="7" fill="#3178C6"/>
    <text x="326" y="101" text-anchor="end" font-family="Georgia, 'Times New Roman', serif" font-size="14" fill="#2c2a27">46.3%</text>
    <text x="22" y="135" font-family="Georgia, 'Times New Roman', serif" font-size="14" fill="#5c574f">HTML</text>
    <rect x="106" y="122" width="220" height="14" rx="7" fill="#e3ded2"/>
    <rect x="106" y="122" width="46.6" height="14" rx="7" fill="#e34c26"/>
    <text x="326" y="135" text-anchor="end" font-family="Georgia, 'Times New Roman', serif" font-size="14" fill="#2c2a27">21.2%</text>
    <text x="22" y="169" font-family="Georgia, 'Times New Roman', serif" font-size="14" fill="#5c574f">Rust</text>
    <rect x="106" y="156" width="220" height="14" rx="7" fill="#e3ded2"/>
    <rect x="106" y="156" width="36.3" height="14" rx="7" fill="#dea584"/>
    <text x="326" y="169" text-anchor="end" font-family="Georgia, 'Times New Roman', serif" font-size="14" fill="#2c2a27">16.5%</text>
    <text x="22" y="203" font-family="Georgia, 'Times New Roman', serif" font-size="14" fill="#5c574f">JavaScript</text>
    <rect x="106" y="190" width="220" height="14" rx="7" fill="#e3ded2"/>
    <rect x="106" y="190" width="27.6" height="14" rx="7" fill="#f1e05a"/>
    <text x="326" y="203" text-anchor="end" font-family="Georgia, 'Times New Roman', serif" font-size="14" fill="#2c2a27">12.6%</text>
    <text x="22" y="237" font-family="Georgia, 'Times New Roman', serif" font-size="14" fill="#5c574f">CSS</text>
    <rect x="106" y="224" width="220" height="14" rx="7" fill="#e3ded2"/>
    <rect x="106" y="224" width="4.0" height="14" rx="7" fill="#563d7c"/>
    <text x="326" y="237" text-anchor="end" font-family="Georgia, 'Times New Roman', serif" font-size="14" fill="#2c2a27">1.8%</text>
    <text x="22" y="271" font-family="Georgia, 'Times New Roman', serif" font-size="14" fill="#5c574f">Python</text>
    <rect x="106" y="258" width="220" height="14" rx="7" fill="#e3ded2"/>
    <rect x="106" y="258" width="3.6" height="14" rx="7" fill="#3572A5"/>
    <text x="326" y="271" text-anchor="end" font-family="Georgia, 'Times New Roman', serif" font-size="14" fill="#2c2a27">1.6%</text>
</svg>